<?xml version="1.0" encoding="UTF-8"?>
<svg xmlns="http://www.w3.org/2000/svg" style="display: none;">
  <!-- "Discourse Trash Clock" is a Discourse derivative of https://fontawesome.com/icons/trash and https://fontawesome.com/icons/clock -->
  <symbol id='discourse-trash-clock'  viewBox="0 0 584.4 512"><path d="M448 80V48c0-8.8-7.2-16-16-16H312l-9.4-18.7C298.5 5.1 290.2 0 281.1 0H166.8c-9.1 0-17.4 5.1-21.4 13.3L136 32H16C7.2 32 0 39.2 0 48v32c0 8.8 7.2 16 16 16h416c8.8 0 16-7.2 16-16zM464.3 359.2l-51.8-37.7V211.6c0-5.1-4.2-9.3-9.3-9.3h-24.8c-5.1 0-9.3 4.2-9.3 9.3V339c0 2.9 1.4 5.7 3.8 7.5l65.9 47.9c4.2 3 10 2.1 13-2l14.6-20.1c3-4.2 2.1-10.1-2.1-13.1z"/><path d="M584.4 319.9c0-106.1-85.9-192-192-192-1.9 0-3.9 0-5.8.1H32l21.2 339c1.6 25.3 22.6 45 47.9 45h293.7l-.3-.2c105.1-1.1 189.9-86.6 189.9-191.9zM390.8 475.3c-85.7 0-155.2-69.4-155.2-155.2S305.1 165 390.8 165 546 234.5 546 320.2s-69.5 155.1-155.2 155.1z"/></symbol>
</svg>


